<svg id="Layer_1" data-name="Layer 1" xmlns="http://www.w3.org/2000/svg" xmlns:xlink="http://www.w3.org/1999/xlink" viewBox="0 0 138.99 91.56"><defs><style>.cls-1,.cls-2{fill:none;}.cls-1{clip-rule:evenodd;}.cls-3{fill:url(#linear-gradient);}.cls-4{fill:url(#linear-gradient-2);}.cls-5{fill:url(#linear-gradient-4);}.cls-6{fill:url(#linear-gradient-5);}.cls-7{clip-path:url(#clip-path);}.cls-8{fill:#d4a139;}.cls-9{clip-path:url(#clip-path-2);}.cls-10,.cls-11,.cls-14,.cls-21,.cls-22,.cls-23,.cls-25,.cls-26{fill-rule:evenodd;}.cls-10{fill:url(#linear-gradient-9);}.cls-11,.cls-17{fill:#1d1d1d;}.cls-12{clip-path:url(#clip-path-3);}.cls-13{clip-path:url(#clip-path-4);}.cls-14{fill:url(#linear-gradient-10);}.cls-15{fill:#d8d7d6;}.cls-16{fill:#0e5a47;}.cls-18{fill:#a1a0a1;}.cls-19{fill:#f4f4f4;}.cls-20{clip-path:url(#clip-path-5);}.cls-21{fill:url(#linear-gradient-11);}.cls-22{fill:url(#linear-gradient-12);}.cls-23{fill:#c52030;}.cls-24{clip-path:url(#clip-path-6);}.cls-25{fill:url(#linear-gradient-13);}.cls-26{fill:url(#linear-gradient-14);}.cls-27{fill:url(#radial-gradient);}</style><linearGradient id="linear-gradient" x1="-25.98" y1="68.86" x2="231.86" y2="68.86" gradientUnits="userSpaceOnUse"><stop offset="0" stop-color="#114f30"/><stop offset="0.34" stop-color="#0d5847"/><stop offset="0.42" stop-color="#0c5f48"/><stop offset="0.52" stop-color="#097249"/><stop offset="0.62" stop-color="#068a4b"/><stop offset="0.7" stop-color="#07844b"/><stop offset="0.81" stop-color="#0b724b"/><stop offset="0.94" stop-color="#11554a"/><stop offset="1" stop-color="#0d4e47"/></linearGradient><linearGradient id="linear-gradient-2" x1="-25.98" y1="68.91" x2="231.86" y2="68.91" xlink:href="#linear-gradient"/><linearGradient id="linear-gradient-4" x1="-25.98" y1="68.75" x2="231.86" y2="68.75" xlink:href="#linear-gradient"/><linearGradient id="linear-gradient-5" x1="-25.98" y1="68.79" x2="231.86" y2="68.79" xlink:href="#linear-gradient"/><clipPath id="clip-path"><path id="SVGID" class="cls-1" d="M53.22,51.91l.36.09v4.32H57.9V54.9h.55l6.66,2.89,4.09-2.23,5.11-2.82,4.37-2.44.1-7.1,6-3.31.06-14.07-6-3.43-.11.05V14.92l-6.85-3.73L65.18,7.71l-6.72,3.81H57.9V9.22H53.58v4.32l-.36.08-.3.09-.3.08-.35.1-2.16-3.75L42.4,14.59l2.16,3.74-.27.26-.22.22-.21.22-.26.26-3.74-2.16L35.4,24.84,39.15,27l-.1.35-.09.3-.07.29-.09.37H34.48v8.9h4.33c.1.44.22.87.35,1.3l-3.75,2.17,4.45,7.71,3.74-2.17.25.27.22.22.22.22.27.25-2.17,3.75,7.72,4.45,2.16-3.74.35.1.3.08Zm11.69-17.2a2,2,0,0,1,1.68.89L73,39.35a.37.37,0,0,1,.19.33v5.9a1.64,1.64,0,0,1,.57.54A1.57,1.57,0,0,1,74,47a1.61,1.61,0,0,1-.56,1.21,2,2,0,0,1-1.35.5,2,2,0,0,1-1.35-.5A1.61,1.61,0,0,1,70.2,47a1.49,1.49,0,0,1,.27-.87,1.64,1.64,0,0,1,.57-.54V40.73a.35.35,0,0,0-.19-.33l-4.64-2.72a2.08,2.08,0,0,1-2.65,0A1.7,1.7,0,0,1,64.91,34.71ZM59.42,47.18l-.15-2.06v-.34h.19a5.86,5.86,0,0,0,1.45-.7h0a1.85,1.85,0,0,1,1.9-1.5c1.64,0,2.59,1.81,1.35,2.91a1.68,1.68,0,0,1-2,.4m-2.73-1.11a10.64,10.64,0,0,1-2.52,0h0a10.18,10.18,0,0,1-1.64-.26,12.59,12.59,0,0,1-2.33-.8q-.48-.22-1-.51a7.8,7.8,0,0,1-.91-.58A11.57,11.57,0,0,1,49.22,41,12.09,12.09,0,0,1,54.9,21.08a11.78,11.78,0,0,1,2-.36V10.54a.38.38,0,0,0-.38-.38H54.92a.38.38,0,0,0-.38.38v3.77c-.47.08-.93.19-1.37.3s-.9.27-1.34.42L50,11.77a.37.37,0,0,0-.52-.14L44,14.74a.38.38,0,0,0-.14.52l1.88,3.26c-.35.3-.7.62-1,.95s-.64.67-1,1l-3.26-1.89a.39.39,0,0,0-.52.14l-3.12,5.4a.38.38,0,0,0,.14.52l3.26,1.89c-.16.44-.29.89-.41,1.33s-.23.91-.31,1.37H35.82a.39.39,0,0,0-.39.38v6.23a.39.39,0,0,0,.39.38h3.76c.09.47.19.92.31,1.36h0A13.52,13.52,0,0,0,40.31,39l-3.26,1.88a.38.38,0,0,0-.14.53L40,46.75a.39.39,0,0,0,.52.14L43.79,45c.31.36.63.7,1,1s.67.64,1,.95l-1.89,3.26a.4.4,0,0,0,.14.53l1.76,1,1.88,1.09,1.76,1a.39.39,0,0,0,.52-.14l1.89-3.27c.44.16.89.29,1.33.42s.91.22,1.37.31V55a.38.38,0,0,0,.38.38h1.64a.38.38,0,0,0,.38-.38V49.46a.38.38,0,0,0-.33-.38L55.9,49a19,19,0,0,1-2.1-.42l-.74-.21c-.44-.15-.87-.3-1.3-.48l-.66-.28a.38.38,0,0,0-.48.16l-1.55,2.69a.39.39,0,0,1-.52.14l-1.22-.7a.37.37,0,0,1-.14-.52l1.55-2.69a.39.39,0,0,0-.1-.5l-.57-.44A12.61,12.61,0,0,1,47,44.85l-.55-.52A16.41,16.41,0,0,1,45,42.72l-.44-.57a.39.39,0,0,0-.49-.1l-2.69,1.56a.38.38,0,0,1-.52-.15l-.71-1.23a.37.37,0,0,1,.14-.52L43,40.16a.37.37,0,0,0,.16-.47L42.9,39a17.9,17.9,0,0,1-.68-2,17.33,17.33,0,0,1-.42-2.1l-.1-.72a.37.37,0,0,0-.38-.33h-3.1a.38.38,0,0,1-.38-.38V32a.38.38,0,0,1,.38-.38h3.11a.39.39,0,0,0,.38-.33l.09-.71a15.3,15.3,0,0,1,.42-2.1,15.11,15.11,0,0,1,.68-2l.28-.68a.38.38,0,0,0-.16-.47l-2.69-1.55a.39.39,0,0,1-.14-.52l.71-1.22a.38.38,0,0,1,.52-.14l2.69,1.55a.37.37,0,0,0,.49-.1l.44-.58a16.37,16.37,0,0,1,1.42-1.61,17.85,17.85,0,0,1,1.61-1.41l.57-.43a.4.4,0,0,0,.1-.5l-1.56-2.69a.39.39,0,0,1,.14-.52l1.23-.71a.38.38,0,0,1,.52.14l1.55,2.7a.38.38,0,0,0,.48.15l.67-.27a15,15,0,0,1,2-.69h0l.27-.06a.35.35,0,0,1,.33.07.38.38,0,0,1,.15.3v1.14a.39.39,0,0,1-.28.37A14.51,14.51,0,0,0,48,43.19a15,15,0,0,0,1.9,1.54c.3.2.61.39.92.57s.64.36,1,.51a14.21,14.21,0,0,0,2.29.88,13.89,13.89,0,0,0,2.91.52c.34,0,.69,0,1,0a14.52,14.52,0,0,0,1.48-.08V54a.38.38,0,0,0,.22.35l5.21,2.26a.37.37,0,0,0,.34,0l1.68-.91,1.83-1L70.06,54,65.9,52a1.94,1.94,0,1,1,.76-2.17l5.86,2.81,1.34-.73,3.67-2a.37.37,0,0,0,.2-.34l0-11.94a1.67,1.67,0,0,1-.84-1.41,1.92,1.92,0,0,1,3.82,0,1.67,1.67,0,0,1-.84,1.41v3.92l3.7-2.06a.36.36,0,0,0,.2-.33l0-12.51a.38.38,0,0,0-.19-.34L79,23.56a.36.36,0,0,0-.35,0l-4.74,2.26c-.16,1.48-2.16,2-3.25,1a1.6,1.6,0,0,1,0-2.42,2,2,0,0,1,2.24-.3l4.69-2.24a.37.37,0,0,0,.21-.34V15.71a.38.38,0,0,0-.19-.34l-5.58-3L67.78,15.1v.06a1.53,1.53,0,0,1-.28.88,1.68,1.68,0,0,1-.58.54l-.07,12.18a.37.37,0,0,0,.2.34l4.2,2.17c1.23-.41,2.75.12,2.75,1.54a1.83,1.83,0,0,1-1.91,1.71,1.85,1.85,0,0,1-1.91-1.59l-5.27-2.72a.38.38,0,0,1-.21-.34l.08-13.3a1.81,1.81,0,0,1-.56-.54,1.54,1.54,0,0,1-.27-.87A1.65,1.65,0,0,1,64.52,14a2,2,0,0,1,1.35-.5l.42,0,.23.06L70,11.28l-4.62-2.4a.38.38,0,0,0-.37,0l-5.37,3a.37.37,0,0,0-.19.33V44.77Zm-6,7.34L52.88,52l-.54-.16L50.16,55.6q-4-2.3-8-4.61l2.18-3.77-.18-.17L44,46.83l-.22-.23-.18-.18L39.8,48.6l-4.6-8L39,38.45c-.11-.35-.2-.72-.29-1.09H34.33V28.17h4.35l.06-.25.08-.3.08-.3.07-.24L35.2,24.9q2.29-4,4.6-8l3.78,2.18.17-.18.22-.22.22-.23.18-.17L42.2,14.54l8-4.6,2.18,3.78.54-.16.3-.08.25-.06V9.07H58v2.31h.37l6.77-3.84c2.33,1.23,4.68,2.44,7,3.65h0l6.69,3.65v7.41L85,25.74c0,4.75-.06,9.5-.06,14.25l-6,3.31-.1,7.1-4.44,2.48L69.27,55.7,65.12,58l-6.71-2.92H58v1.42H53.43Z"/></clipPath><clipPath id="clip-path-2"><polygon class="cls-2" points="49.31 57.96 57.94 57.96 57.9 7.75 34.33 7.54 34.33 57.97 49.31 57.97 49.31 57.96"/></clipPath><linearGradient id="linear-gradient-9" x1="32.44" y1="32.45" x2="110.6" y2="33.18" gradientUnits="userSpaceOnUse"><stop offset="0" stop-color="#8b6126"/><stop offset="0.06" stop-color="#d79d45"/><stop offset="0.08" stop-color="#e4b253"/><stop offset="0.12" stop-color="#f5ce65"/><stop offset="0.14" stop-color="#fbd86c"/><stop offset="0.15" stop-color="#fbd667"/><stop offset="0.18" stop-color="#f9cd4e"/><stop offset="0.21" stop-color="#f8c73e"/><stop offset="0.24" stop-color="#f8c539"/><stop offset="0.4" stop-color="#0d4e47"/><stop offset="0.56" stop-color="#127547"/><stop offset="0.71" stop-color="#076e49"/><stop offset="0.9" stop-color="#0d4e47"/><stop offset="0.97" stop-color="#0d4e47"/><stop offset="1" stop-color="#0d4e47"/></linearGradient><clipPath id="clip-path-3"><path id="SVGID-2" data-name="SVGID" class="cls-1" d="M64.63,51.85l.3-.08.35-.1,2.17,3.74L75.16,51,73,47.21l.26-.25.22-.21.22-.23.25-.27,3.75,2.17,4.45-7.71L78.4,38.54c.13-.43.25-.86.35-1.3h4.33v-8.9H78.76L78.67,28l-.08-.3-.08-.3L78.4,27l3.75-2.16L77.7,17.15,74,19.31l-.25-.26-.22-.21-.22-.23L73,18.36l2.16-3.74-7.7-4.45-2.17,3.74-.35-.1-.29-.08-.3-.08L64,13.56V9.24H59.66v2.31h-.57L52.37,7.73l-6.7,3.49L38.82,15v7.52l-.11,0-6,3.43.06,14.07,6,3.31.1,7.1,4.37,2.44,5.11,2.82,4.09,2.23,6.66-2.89h.56v1.42H64V52l.36-.09ZM54,37.66a2.09,2.09,0,0,1-2.65,0L46.7,40.42a.35.35,0,0,0-.19.33V45.6a1.77,1.77,0,0,1,.58.54,1.57,1.57,0,0,1,.27.87,1.65,1.65,0,0,1-.56,1.21,2.09,2.09,0,0,1-2.71,0A1.65,1.65,0,0,1,43.53,47a1.57,1.57,0,0,1,.27-.87,1.77,1.77,0,0,1,.58-.54V39.7a.34.34,0,0,1,.19-.32L51,35.62a2,2,0,0,1,1.68-.88A1.7,1.7,0,0,1,54,37.66Zm1.38,8.24a1.7,1.7,0,0,1-2-.4c-1.23-1.1-.28-2.91,1.36-2.91a1.85,1.85,0,0,1,1.89,1.5h0a5.82,5.82,0,0,0,1.45.69l.19,0v.33l-.16,2.06M58.1,31V12.28a.36.36,0,0,0-.19-.32L52.53,8.91a.36.36,0,0,0-.36,0l-4.62,2.4L51,13.57l.23-.06.42,0A2,2,0,0,1,53,14a1.58,1.58,0,0,1,.56,1.2,1.54,1.54,0,0,1-.26.87,2,2,0,0,1-.57.55l.08,13.29a.37.37,0,0,1-.2.34L47.36,33a1.93,1.93,0,0,1-3.82-.11c0-1.42,1.52-2,2.75-1.54l4.2-2.17a.39.39,0,0,0,.21-.35L50.62,16.6a1.68,1.68,0,0,1-.58-.54,1.58,1.58,0,0,1-.27-.88v-.06l-4.23-2.76L40,15.4a.35.35,0,0,0-.2.33v5.83a.38.38,0,0,0,.22.35l4.68,2.23a2,2,0,0,1,2.24.3,1.59,1.59,0,0,1,0,2.42,2,2,0,0,1-3.25-1l-4.73-2.26a.41.41,0,0,0-.36,0L33.9,26.27a.4.4,0,0,0-.19.34l0,12.51a.38.38,0,0,0,.2.33l3.71,2.06V37.59a1.67,1.67,0,0,1-.85-1.41,1.93,1.93,0,0,1,3.83,0,1.66,1.66,0,0,1-.84,1.41l0,11.94a.39.39,0,0,0,.2.34l3.68,2.05,1.33.72,5.87-2.81a1.93,1.93,0,1,1,1.84,2.51A1.9,1.9,0,0,1,51.66,52l-4.17,2,1.32.74,1.84,1,1.67.91a.37.37,0,0,0,.34,0l5.21-2.26a.38.38,0,0,0,.23-.35V47.2c.48,0,1,.07,1.47.07s.7,0,1,0a14,14,0,0,0,2.92-.52,13.56,13.56,0,0,0,2.28-.88c.33-.15.65-.32,1-.5s.62-.38.92-.58a13.6,13.6,0,0,0,1.9-1.54A14.49,14.49,0,0,0,63.3,18.78a.37.37,0,0,1-.28-.37V17.27a.37.37,0,0,1,.47-.37l.27.07h0a13.44,13.44,0,0,1,2,.68l.67.27a.36.36,0,0,0,.47-.15l1.56-2.7a.38.38,0,0,1,.52-.14l1.23.71a.39.39,0,0,1,.14.52l-1.56,2.69a.39.39,0,0,0,.1.5l.57.43A16.52,16.52,0,0,1,71.1,21.2a15.33,15.33,0,0,1,1.41,1.61l.45.57a.36.36,0,0,0,.49.1l2.68-1.55a.38.38,0,0,1,.52.14l.71,1.22a.38.38,0,0,1-.14.52l-2.69,1.55a.4.4,0,0,0-.16.48l.28.67a16.7,16.7,0,0,1,.69,2,17.34,17.34,0,0,1,.42,2.1l.09.71a.38.38,0,0,0,.38.33h3.11a.39.39,0,0,1,.38.38v1.42a.38.38,0,0,1-.38.38H76.23a.39.39,0,0,0-.38.33l-.09.72a17.33,17.33,0,0,1-.42,2.1,16.14,16.14,0,0,1-.69,2l-.28.67a.38.38,0,0,0,.16.47l2.7,1.56a.39.39,0,0,1,.14.52l-.71,1.22a.39.39,0,0,1-.53.15l-2.68-1.56a.4.4,0,0,0-.5.1l-.44.57a16.41,16.41,0,0,1-1.41,1.61l-.55.53c-.34.31-.7.61-1.06.88l-.58.44a.39.39,0,0,0-.09.5l1.55,2.69a.39.39,0,0,1-.14.52l-1.22.7a.38.38,0,0,1-.52-.14l-1.55-2.69a.4.4,0,0,0-.48-.16l-.67.28c-.42.18-.86.33-1.3.48l-.73.21a15.61,15.61,0,0,1-2.1.42l-.72.09a.37.37,0,0,0-.32.38V55a.38.38,0,0,0,.38.38h1.65A.38.38,0,0,0,63,55V51.23c.46-.09.91-.19,1.36-.31s.89-.26,1.34-.42l1.88,3.27a.39.39,0,0,0,.52.14l1.76-1,1.88-1.08,1.76-1a.37.37,0,0,0,.14-.52L71.78,47c.36-.31.7-.62,1-1s.65-.67,1-1L77,46.91a.38.38,0,0,0,.52-.14l3.12-5.39a.4.4,0,0,0-.14-.53L77.25,39c.15-.44.29-.89.41-1.33h0c.12-.44.22-.89.31-1.36h3.77a.38.38,0,0,0,.38-.38V29.66a.38.38,0,0,0-.38-.38H78c-.09-.46-.19-.92-.32-1.37a13.52,13.52,0,0,0-.41-1.33l3.27-1.89a.38.38,0,0,0,.14-.52l-3.12-5.4a.39.39,0,0,0-.52-.14l-3.27,1.89c-.3-.36-.62-.7-1-1s-.67-.64-1-.95l1.89-3.26a.39.39,0,0,0-.14-.52l-5.4-3.11a.37.37,0,0,0-.52.14l-1.88,3.26c-.44-.15-.89-.29-1.34-.42s-.9-.22-1.36-.3V10.56a.38.38,0,0,0-.38-.38H61a.38.38,0,0,0-.38.38V20.74a11.78,11.78,0,0,1,2,.36A12.1,12.1,0,0,1,68.34,41a12.5,12.5,0,0,1-1.86,1.61,9.61,9.61,0,0,1-.92.59c-.31.18-.63.35-1,.5a12,12,0,0,1-2.32.8,11.45,11.45,0,0,1-1.64.27h0a10.06,10.06,0,0,1-2.51,0Zm6,25.45H59.51V55.07h-.37L52.43,58l-4.15-2.27L43.17,52.9l-4.44-2.48-.1-7.1-6-3.31c0-4.75,0-9.5-.07-14.24,2-1.16,4.06-2.32,6.07-3.5V14.86l6.69-3.64h0c2.34-1.21,4.69-2.42,7-3.65l6.77,3.84h.36V9.09h4.61v4.35l.25.06.31.08.53.16L67.39,10l8,4.6-2.18,3.77.18.18.23.22.21.22.18.18L77.75,17q2.31,4,4.6,8L78.58,27.1l.07.24.08.3.08.3.06.25h4.35v9.19H78.87c-.09.37-.19.74-.3,1.09l3.78,2.19q-2.3,4-4.6,8L74,46.45l-.17.17-.22.23-.23.22-.18.17L75.36,51q-4,2.31-8,4.6l-2.18-3.78-.54.16-.55.14Z"/></clipPath><clipPath id="clip-path-4"><polygon class="cls-2" points="68.24 57.98 59.61 57.98 59.66 7.78 83.22 7.56 83.22 57.99 68.24 57.99 68.24 57.98"/></clipPath><linearGradient id="linear-gradient-10" x1="-1509.04" y1="32.47" x2="-1430.87" y2="33.21" gradientTransform="matrix(-1, 0, 0, 1, -1423.92, 0)" xlink:href="#linear-gradient-9"/><clipPath id="clip-path-5"><polygon class="cls-2" points="103.58 57.98 112.18 57.99 112.13 7.78 88.59 7.56 88.59 57.99 103.58 57.99 103.58 57.98"/></clipPath><linearGradient id="linear-gradient-11" x1="86.7" y1="32.47" x2="164.86" y2="33.2" xlink:href="#linear-gradient-9"/><linearGradient id="linear-gradient-12" x1="64.74" y1="25.14" x2="240.43" y2="54.78" gradientUnits="userSpaceOnUse"><stop offset="0" stop-color="#c22030"/><stop offset="0.51" stop-color="#c62030"/><stop offset="0.67" stop-color="#e92c47"/><stop offset="0.87" stop-color="#c72434"/><stop offset="0.9" stop-color="#c12331"/><stop offset="0.95" stop-color="#c52131"/><stop offset="0.97" stop-color="#c92031"/><stop offset="1" stop-color="#c52030"/></linearGradient><clipPath id="clip-path-6"><polygon class="cls-2" points="120.72 57.98 112.08 57.98 112.14 7.77 135.7 7.56 135.7 57.99 120.72 57.99 120.72 57.98"/></clipPath><linearGradient id="linear-gradient-13" x1="-1614.33" y1="32.47" x2="-1536.17" y2="33.2" gradientTransform="matrix(-1, 0, 0, 1, -1476.74, 0)" xlink:href="#linear-gradient-9"/><linearGradient id="linear-gradient-14" x1="64.86" y1="24.43" x2="240.55" y2="54.08" xlink:href="#linear-gradient-12"/><radialGradient id="radial-gradient" cx="-11.97" cy="85.28" r="156.28" gradientUnits="userSpaceOnUse"><stop offset="0" stop-color="#ffd077"/><stop offset="0.1" stop-color="#f4c467"/><stop offset="0.31" stop-color="#e1af4d"/><stop offset="0.53" stop-color="#d4a13b"/><stop offset="0.76" stop-color="#cc9830"/><stop offset="1" stop-color="#c9952c"/></radialGradient></defs><path class="cls-3" d="M15.4,73.37a2.86,2.86,0,0,1-1,.52,4.63,4.63,0,0,1-1.41.19,4.92,4.92,0,0,1-1.77-.27,1.4,1.4,0,0,1-.91-.91c-.55-1.74-1-3.15-1.37-4.23s-.63-2-.83-2.83H8C7.9,67,7.86,68.07,7.83,69s0,1.89-.06,2.8,0,1.83-.06,2.75-.08,2-.14,3.09a5.1,5.1,0,0,1-1,.25,7.44,7.44,0,0,1-1.25.1,4.26,4.26,0,0,1-2-.41,1.6,1.6,0,0,1-.73-1.51L3.41,61a2.92,2.92,0,0,1,1-.83,4.79,4.79,0,0,1,2.26-.44,5.13,5.13,0,0,1,2.47.49,2.85,2.85,0,0,1,1.31,1.58c.18.48.37,1,.58,1.63s.42,1.25.62,1.9.42,1.3.61,1.94L12.84,69H13q.71-2.49,1.43-4.81c.47-1.55.91-2.85,1.31-3.9a4.68,4.68,0,0,1,1.14-.4,6.86,6.86,0,0,1,1.56-.16,5.57,5.57,0,0,1,2.38.43,1.69,1.69,0,0,1,1.08,1.23c.07.39.16,1,.25,1.82s.18,1.74.28,2.77.2,2.11.3,3.26.19,2.25.28,3.3.17,2,.22,2.91.1,1.55.12,2a3.81,3.81,0,0,1-1.05.43,6.18,6.18,0,0,1-1.42.13,4.35,4.35,0,0,1-1.9-.38,1.62,1.62,0,0,1-.83-1.51C18,74,17.94,72,17.91,70.32s-.07-3.16-.13-4.33h-.15c-.2.77-.49,1.74-.86,2.9S15.93,71.55,15.4,73.37Z"/><path class="cls-4" d="M42.62,71.15a7.48,7.48,0,0,1-.55,2.92,6.08,6.08,0,0,1-1.59,2.25A7.28,7.28,0,0,1,38,77.76a11.54,11.54,0,0,1-6.72,0,7.28,7.28,0,0,1-2.53-1.44,6.08,6.08,0,0,1-1.59-2.25,7.48,7.48,0,0,1-.55-2.92V59.83l1-.17a9.31,9.31,0,0,1,1.37-.1,6.12,6.12,0,0,1,1.2.1,2.27,2.27,0,0,1,.88.37,1.64,1.64,0,0,1,.54.74A3.92,3.92,0,0,1,31.76,62v9a3,3,0,0,0,.79,2.22,2.77,2.77,0,0,0,2,.8,2.73,2.73,0,0,0,2-.8,3,3,0,0,0,.78-2.22V59.83l1-.17a9.41,9.41,0,0,1,1.37-.1,6.12,6.12,0,0,1,1.2.1,2.27,2.27,0,0,1,.88.37,1.64,1.64,0,0,1,.54.74A3.66,3.66,0,0,1,42.62,62Z"/><path class="cls-4" d="M49.23,59.83l1-.17a9.41,9.41,0,0,1,1.37-.1,6.22,6.22,0,0,1,1.21.1,2.23,2.23,0,0,1,.87.37,1.64,1.64,0,0,1,.54.74A3.64,3.64,0,0,1,54.44,62V73a5,5,0,0,1-1.52,4,6.62,6.62,0,0,1-4.46,1.32,5.54,5.54,0,0,1-2.5-.48,2.12,2.12,0,0,1-1-.88,2.58,2.58,0,0,1-.31-1.28,3,3,0,0,1,.16-1,2.28,2.28,0,0,1,.4-.71c.38.08.7.14,1,.17a8,8,0,0,0,.88,0,2.08,2.08,0,0,0,1.66-.58,2.49,2.49,0,0,0,.51-1.7Z"/><path class="cls-5" d="M63.42,77.67a8.78,8.78,0,0,1-1,.17,10.93,10.93,0,0,1-1.39.09,6.12,6.12,0,0,1-1.2-.1,2.13,2.13,0,0,1-.88-.37,1.64,1.64,0,0,1-.54-.74,3.88,3.88,0,0,1-.17-1.25V59.83l1-.17a9.31,9.31,0,0,1,1.37-.1,6.19,6.19,0,0,1,1.2.1,2.27,2.27,0,0,1,.88.37,1.56,1.56,0,0,1,.53.74A3.64,3.64,0,0,1,63.42,62Z"/><path class="cls-6" d="M74.28,78.26l-1.19,0q-.68,0-1.41-.12c-.49-.06-1-.13-1.44-.22a6.73,6.73,0,0,1-1.31-.37,2.22,2.22,0,0,1-1.64-2.17V61.52a1.3,1.3,0,0,1,.34-1,2.57,2.57,0,0,1,.94-.55,11.35,11.35,0,0,1,2.53-.51,28.79,28.79,0,0,1,3.12-.17,11.19,11.19,0,0,1,5.87,1.28,4.32,4.32,0,0,1,2,3.94,3.56,3.56,0,0,1-.77,2.29,4.38,4.38,0,0,1-2.09,1.41,5.24,5.24,0,0,1,2.49,1.51,4,4,0,0,1,1,2.76,4.81,4.81,0,0,1-2.18,4.34A11.67,11.67,0,0,1,74.28,78.26ZM72.35,66.85h2.17a3,3,0,0,0,1.86-.47A1.69,1.69,0,0,0,77,65a1.47,1.47,0,0,0-.67-1.27,3.42,3.42,0,0,0-2-.48l-1,0a7.47,7.47,0,0,0-.91.09Zm0,7.23a5.29,5.29,0,0,0,1.07.16c.44,0,.85.05,1.25.05a3.77,3.77,0,0,0,2-.49,1.69,1.69,0,0,0,.79-1.53,1.52,1.52,0,0,0-.66-1.39,3.73,3.73,0,0,0-2-.42H72.35Z"/><path class="cls-6" d="M94.34,64.57l-3,.92a4.5,4.5,0,0,1-.89-.83A2.25,2.25,0,0,1,90,63.17c0-1.18.73-2,2.18-2.48l3.33-1.13h1.1a2.74,2.74,0,0,1,2,.74,2.71,2.71,0,0,1,.75,2V77.76l-1,.16a8,8,0,0,1-1.3.1A7,7,0,0,1,96,77.93a2,2,0,0,1-.88-.35,1.71,1.71,0,0,1-.55-.73,3.08,3.08,0,0,1-.19-1.2Z"/><path class="cls-6" d="M118.41,68.78a12.7,12.7,0,0,1-.6,4.06,8.36,8.36,0,0,1-1.65,3,6.89,6.89,0,0,1-2.53,1.83,8.17,8.17,0,0,1-3.19.62,8.27,8.27,0,0,1-3.23-.62,6.89,6.89,0,0,1-2.53-1.83,8.35,8.35,0,0,1-1.64-3,13,13,0,0,1-.58-4.06,12.85,12.85,0,0,1,.58-4,8.39,8.39,0,0,1,1.64-3,6.89,6.89,0,0,1,2.53-1.83,8.27,8.27,0,0,1,3.23-.62,8.17,8.17,0,0,1,3.19.62,6.89,6.89,0,0,1,2.53,1.83,8.4,8.4,0,0,1,1.65,3A12.55,12.55,0,0,1,118.41,68.78Zm-5.09,0a8.62,8.62,0,0,0-.76-4,2.35,2.35,0,0,0-2.15-1.43,2.29,2.29,0,0,0-2.13,1.43,8.92,8.92,0,0,0-.73,4,9.06,9.06,0,0,0,.73,4,2.29,2.29,0,0,0,2.13,1.44,2.34,2.34,0,0,0,2.15-1.44A8.75,8.75,0,0,0,113.32,68.78Z"/><path class="cls-6" d="M136.44,68.78a13,13,0,0,1-.59,4.06,8.53,8.53,0,0,1-1.66,3,6.94,6.94,0,0,1-2.52,1.83,8.65,8.65,0,0,1-6.43,0,7,7,0,0,1-2.53-1.83,8.35,8.35,0,0,1-1.64-3,13.31,13.31,0,0,1-.58-4.06,13.15,13.15,0,0,1,.58-4,8.39,8.39,0,0,1,1.64-3,7,7,0,0,1,2.53-1.83,8.65,8.65,0,0,1,6.43,0,6.94,6.94,0,0,1,2.52,1.83,8.58,8.58,0,0,1,1.66,3A12.84,12.84,0,0,1,136.44,68.78Zm-5.09,0a8.62,8.62,0,0,0-.76-4,2.35,2.35,0,0,0-2.15-1.43,2.3,2.3,0,0,0-2.13,1.43,8.92,8.92,0,0,0-.73,4,9.06,9.06,0,0,0,.73,4,2.3,2.3,0,0,0,2.13,1.44,2.34,2.34,0,0,0,2.15-1.44A8.75,8.75,0,0,0,131.35,68.78Z"/><g class="cls-7"><polygon class="cls-8" points="58.76 7.54 58.76 38.27 59.47 38.32 59.47 44.99 59.47 44.99 58.8 54.8 58.78 55.51 59.46 58.05 85.72 58.27 85.72 7.54 58.76 7.54"/></g><g class="cls-9"><path class="cls-10" d="M78.63,23.55l-4.74,2.26c-.16,1.48-2.16,2-3.25,1a1.6,1.6,0,0,1,0-2.42,2.06,2.06,0,0,1,2.25-.3l4.68-2.24a.37.37,0,0,0,.21-.34V15.71a.38.38,0,0,0-.19-.34l-5.58-3L67.78,15.1v.06a1.53,1.53,0,0,1-.28.88,1.74,1.74,0,0,1-.57.54l-.08,12.18a.38.38,0,0,0,.21.34l4.19,2.17c1.24-.41,2.75.12,2.75,1.54a1.83,1.83,0,0,1-1.91,1.71,1.85,1.85,0,0,1-1.91-1.59l-5.27-2.72a.38.38,0,0,1-.21-.34l.08-13.3a1.7,1.7,0,0,1-.56-.54,1.54,1.54,0,0,1-.27-.87A1.65,1.65,0,0,1,64.52,14a2,2,0,0,1,1.35-.5l.43,0,.22.06L70,11.28l-4.62-2.4a.38.38,0,0,0-.37,0l-5.37,3a.37.37,0,0,0-.19.33V44.77h0a5.86,5.86,0,0,0,1.45-.7h0a1.84,1.84,0,0,1,1.89-1.5c1.64,0,2.59,1.81,1.35,2.91a1.68,1.68,0,0,1-2,.4,7.39,7.39,0,0,1-2.73,1.29V54a.38.38,0,0,0,.22.35l5.22,2.26a.35.35,0,0,0,.33,0l1.68-.91,1.84-1L70.06,54,65.9,52a2,2,0,0,1-1.09.34,1.94,1.94,0,1,1,1.85-2.51l5.86,2.81,1.34-.73,3.68-2a.38.38,0,0,0,.19-.34l0-11.94a1.67,1.67,0,0,1-.84-1.41,1.92,1.92,0,0,1,3.82,0,1.66,1.66,0,0,1-.84,1.41v3.92l3.7-2.06a.36.36,0,0,0,.2-.33l.06-12.51a.39.39,0,0,0-.2-.34L79,23.56A.36.36,0,0,0,78.63,23.55ZM73.46,48.2a2.07,2.07,0,0,1-2.7,0A1.61,1.61,0,0,1,70.2,47a1.57,1.57,0,0,1,.27-.87,1.64,1.64,0,0,1,.57-.54V40.73a.35.35,0,0,0-.19-.33l-4.64-2.72a2.07,2.07,0,0,1-2.64,0c-1.25-1.11-.29-2.92,1.35-2.92a2,2,0,0,1,1.67.89L73,39.35a.37.37,0,0,1,.19.33v5.9a1.64,1.64,0,0,1,.57.54A1.49,1.49,0,0,1,74,47,1.61,1.61,0,0,1,73.46,48.2Z"/><path class="cls-11" d="M78.89,22.25V14.84l-6.7-3.64h0c-2.34-1.21-4.69-2.42-7-3.65l-6.5,3.69v.17l6.5-3.69,6.71,3.49,6.85,3.72v7.53l.11-.05,6,3.43L84.74,39.9l-5.95,3.31-.11,7.1-4.37,2.44L69.2,55.57,65.12,57.8,58.68,55v.16L65.12,58l4.15-2.27,5.12-2.82,4.44-2.48.1-7.1,6-3.31c0-4.75,0-9.5.06-14.25C82.93,24.58,80.9,23.42,78.89,22.25Z"/></g><g class="cls-12"><polygon class="cls-8" points="58.76 7.56 58.76 38.3 57.98 38.34 57.98 45.02 57.98 45.02 58.8 54.83 58.89 55.67 57.98 58.07 31.72 58.3 31.72 7.56 58.76 7.56"/></g><g class="cls-13"><path class="cls-14" d="M38.57,23.59,33.9,26.27a.4.4,0,0,0-.19.34l0,12.51a.36.36,0,0,0,.2.33l3.7,2.06V37.59a1.67,1.67,0,0,1-.85-1.41,1.92,1.92,0,0,1,3.82,0,1.65,1.65,0,0,1-.83,1.41l0,11.94a.37.37,0,0,0,.2.34l3.68,2.05,1.33.72,5.87-2.81a1.93,1.93,0,1,1,1.84,2.51A2,2,0,0,1,51.65,52l-4.16,2,1.32.74,1.84,1,1.67.91a.37.37,0,0,0,.34,0l5.21-2.26a.38.38,0,0,0,.23-.35V47.2a7.54,7.54,0,0,1-2.74-1.3,1.69,1.69,0,0,1-2-.4c-1.23-1.1-.29-2.91,1.36-2.91a1.85,1.85,0,0,1,1.89,1.5h0a5.4,5.4,0,0,0,1.46.69h0V12.28a.35.35,0,0,0-.2-.32L52.53,8.91a.38.38,0,0,0-.36,0l-4.62,2.4L51,13.57l.23-.06.42,0A2,2,0,0,1,53,14a1.58,1.58,0,0,1,.56,1.2,1.54,1.54,0,0,1-.26.87,2,2,0,0,1-.57.55l.08,13.29a.39.39,0,0,1-.2.34L47.36,33a1.93,1.93,0,0,1-3.82-.11c0-1.42,1.52-2,2.75-1.54l4.2-2.17a.38.38,0,0,0,.2-.35L50.62,16.6a1.68,1.68,0,0,1-.58-.54,1.58,1.58,0,0,1-.27-.88v-.06l-4.23-2.76L40,15.4a.35.35,0,0,0-.2.33v5.84a.37.37,0,0,0,.22.34l4.68,2.23a2,2,0,0,1,2.24.3,1.59,1.59,0,0,1,0,2.42,2,2,0,0,1-3.25-1l-4.73-2.26A.38.38,0,0,0,38.57,23.59Zm5,23.42a1.57,1.57,0,0,1,.27-.87,1.77,1.77,0,0,1,.58-.54V39.7a.35.35,0,0,1,.18-.32L51,35.62a2,2,0,0,1,1.68-.88A1.7,1.7,0,0,1,54,37.66a2.09,2.09,0,0,1-2.65,0L46.7,40.42a.35.35,0,0,0-.19.33V45.6a1.88,1.88,0,0,1,.58.54,1.56,1.56,0,0,1,.26.87,1.64,1.64,0,0,1-.55,1.21,2.06,2.06,0,0,1-2.71,0A1.61,1.61,0,0,1,43.53,47Z"/><path class="cls-11" d="M38.67,22.27V14.86l6.69-3.64h0C47.7,10,50,8.79,52.38,7.56l6.5,3.69v.17L52.37,7.73l-6.7,3.49L38.82,15v7.52l-.11,0-6,3.43.06,14.07,6,3.31.1,7.1,4.37,2.44,5.11,2.82,4.09,2.23L58.88,55v.16L52.43,58l-4.15-2.27L43.17,52.9l-4.45-2.48-.09-7.1-6-3.31c0-4.75,0-9.5-.06-14.24C34.63,24.61,36.65,23.45,38.67,22.27Z"/></g><path class="cls-15" d="M9.19,2.06a2.69,2.69,0,0,1,3.12.51,4.77,4.77,0,0,1,.6.76c.22,1.17-.06,2.38.25,3.54l0,.18c0,.92,0,1.84.1,2.75,0,.06,0,.18,0,.24,0,.91.08,1.81.14,2.71,0,.07,0,.21,0,.28,0,1.9.12,3.79.19,5.69l.5-.25C15,18,16,17.66,16.86,17.21L21.28,15a3.64,3.64,0,0,1,2.65.47,2.94,2.94,0,0,1,.9,2.5,21.86,21.86,0,0,1,1.9,2.46A14.94,14.94,0,0,0,27,24c0,.12,0,.35,0,.47a.35.35,0,0,0,.15.41c.47.61,1.29,1,1.71,1.63a2.38,2.38,0,0,1,.56,1.6v.36l-.08.52a1.44,1.44,0,0,0-.2.58l-.19.29c-.36.25-.72.49-1.06.74l-.17.12c-.35.22-.79.45-.7.83a11.73,11.73,0,0,1-1.72,6.72c-.31.5-.76.94-1,1.44a9.8,9.8,0,0,0-.08,1.43l.49.05a2.29,2.29,0,0,1,1.31.5c.6.42.49,1.12.78,1.66s.55.83.82,1.24a4.92,4.92,0,0,0,1.13,1.15c.13.37.24.74.38,1.1a6,6,0,0,1,.07.61c0,.78,0,1.56-.09,2.34v0a6.29,6.29,0,0,0-.21,1.87c-.09,1.66-.09,3.32-.18,5-1,0-1.94,0-2.91.08L6,57.65a24.68,24.68,0,0,0-2.72.18,17.26,17.26,0,0,1,1.28-7.4c.08-.16.16-.32.23-.48.28-.43.49-.88.8-1.3a6.13,6.13,0,0,0-.09-2.18,32.19,32.19,0,0,0-.11-3.93c-.06-.7,0-1.4,0-2.1A8.29,8.29,0,0,0,5.28,38c.17-.52,1-.91,1.62-1.14.41-.19,1-.05,1.33-.34.06-.84,0-1.68,0-2.52a6.46,6.46,0,0,0-.13-2.32c-.18-.44-.46-.85-.65-1.28a22.76,22.76,0,0,1-1.3-2.68c0-3.88.39-7.77.48-11.64a16.92,16.92,0,0,0,.23-3.75C7,11.86,7,11.45,7,11a10.51,10.51,0,0,0,.25-2.55A16.54,16.54,0,0,1,7.93,4,3,3,0,0,1,9.19,2.06ZM9,2.88A7.22,7.22,0,0,0,8.18,5c-.27,1.72-.46,3.43-.62,5.15C7.19,16,6.85,21.73,6.71,27.5A17.19,17.19,0,0,0,7.87,30c.31.76,1,1.44.88,2.28,0,1.61,0,3.23.08,4.84a3.62,3.62,0,0,0-3,.9c0,3.44.17,6.86.29,10.28.11.58-.53,1.05-.75,1.59a16.11,16.11,0,0,0-1.64,7.48c8.14-.38,16.28-.73,24.43-1.1.06-1.94.12-3.89.22-5.84a5.91,5.91,0,0,0-.13-4.34,7.54,7.54,0,0,1-2.4-3.77c-.42-.55-1.39-.64-2.19-.72.05-.67,0-1.35.1-2,.32-.53.83-1,1.13-1.52a11.67,11.67,0,0,0,1.63-6.72c.2-.83,1.5-1.15,2.11-1.79a2.58,2.58,0,0,0-.43-3c-.52-.61-1.49-1-1.65-1.78A24.49,24.49,0,0,1,26.32,21c-.21-1.1-1.39-1.84-2-2.8a2.83,2.83,0,0,0-1-2.57,3.09,3.09,0,0,0-2.57.14c-2.51,1.28-5.1,2.47-7.68,3.65.14-2.82-.14-5.62-.25-8.42,0-2.29-.27-4.55-.27-6.84a2,2,0,0,0-1-1.62A2,2,0,0,0,9,2.88Z"/><path class="cls-16" d="M9,2.88a2,2,0,0,1,2.56-.31,2,2,0,0,1,1,1.62c0,2.29.26,4.55.27,6.84.11,2.8.39,5.6.25,8.42,2.58-1.18,5.17-2.37,7.68-3.65a3.09,3.09,0,0,1,2.57-.14,2.83,2.83,0,0,1,1,2.57c.6,1,1.78,1.7,2,2.8a24.49,24.49,0,0,0,.27,3.74c.16.77,1.13,1.17,1.65,1.78a2.58,2.58,0,0,1,.43,3c-.61.64-1.91,1-2.11,1.79A11.67,11.67,0,0,1,24.93,38c-.3.53-.81,1-1.13,1.52-.11.67-.05,1.35-.1,2,.8.08,1.77.17,2.19.72a7.54,7.54,0,0,0,2.4,3.77,5.91,5.91,0,0,1,.13,4.34c-.1,2-.16,3.9-.22,5.84-8.15.37-16.29.72-24.43,1.1a16.11,16.11,0,0,1,1.64-7.48c.22-.54.86-1,.75-1.59C6,44.84,5.85,41.42,5.87,38a3.62,3.62,0,0,1,3-.9c-.08-1.61-.08-3.23-.08-4.84.09-.84-.57-1.52-.88-2.28A17.19,17.19,0,0,1,6.71,27.5c.14-5.77.48-11.55.85-17.33.16-1.72.35-3.43.62-5.15A7.22,7.22,0,0,1,9,2.88Zm.79,11c.17.48.16,1,.63,1.41A4.8,4.8,0,0,1,9.74,17a5.08,5.08,0,0,0,0,4.56,9.42,9.42,0,0,1,2.75-2.33,6.72,6.72,0,0,0,0-3.42c-.08-.49-.86-.62-1-1.08.13-.38.35-.75.51-1.12a5.57,5.57,0,0,0,.27-2.35,2.52,2.52,0,0,0-1.87-2.49A6.54,6.54,0,0,0,9.77,13.9Zm11.3,2.33c-2.28,1.13-4.62,2.19-6.87,3.36-.95.51-2.33.85-2.65,1.79-.19,1.15.33,2.45-.71,3.49-.13,1.2-.1,2.58,1.16,3.39a9.44,9.44,0,0,0,2.83-2.67,5.64,5.64,0,0,0,1.37.1c-.52,1-1.18,2-.88,3,.76.24,1.52-.26,2.3-.33,0,.52,0,1.18.7,1.39a18.87,18.87,0,0,0,3.18-.09c0,.61-.58,1.13-.72,1.73a5.23,5.23,0,0,0,0,3,3.18,3.18,0,0,0-.95.72A6.78,6.78,0,0,0,18.61,39l-.78.16a6,6,0,0,0-1.68-.84c-.26.24-.5.48-.75.73A4.21,4.21,0,0,0,14,38.31c-.06.83-.06,1.65-.07,2.47-2.41-.05-4.82-.15-7.22-.21a16.46,16.46,0,0,0,.13,6.56A5.84,5.84,0,0,1,9.47,46a7,7,0,0,1,2.93.21c-.31.73-1.59.74-2.24,1.26-1.34.81-1.27,2.16-1.93,3.23-.62-.7-.38-1.63-.65-2.43C5.22,50,4.8,52.51,4.8,54.7a8.32,8.32,0,0,0,2.23,0,13.81,13.81,0,0,0,4-.93,14.86,14.86,0,0,0-3-.91,19.1,19.1,0,0,1,2.39,0,103.26,103.26,0,0,0,11.79-.36,11.08,11.08,0,0,0,5.09-1.57,3.65,3.65,0,0,0,.78-3.3c-.28-1.43-1.46-2.58-1.88-4-.34-1-1.67-1.37-2.9-1.5a5.08,5.08,0,0,0-1.86-1.75c-.35-.16-.05-.48,0-.71a5.41,5.41,0,0,1,1.36.68c1-.38.59-1.26,1.12-1.84a9.63,9.63,0,0,0,1.75-3.6c.26-.74-.22-1.43-.14-2.16A2.67,2.67,0,0,0,26,30.37c-.08-.38-.6-.81-.19-1.19.81-.36,1.25.71,2,.32a5.07,5.07,0,0,0,0-2c0-.43-.49-.69-.93-.89-1.57-.67-3.48-.72-5.14-1.24a1.94,1.94,0,0,1-.76-.5,19.71,19.71,0,0,1,3.62-.75c.87-.16,1.55-.91,1.23-1.52a4.31,4.31,0,0,0-2-1.71c-1.26-.34-2.55.38-3.57.94a10.69,10.69,0,0,0-.37-1.18c1.26-.77,2.57-1.66,3-2.86.15-.57.52-1.23,0-1.73A2.08,2.08,0,0,0,21.07,16.23Z"/><path class="cls-17" d="M28.88,51.7a6.29,6.29,0,0,1,.21-1.87C29,50.45,29.29,51.11,28.88,51.7Z"/><path class="cls-18" d="M7.26,8.48A10.51,10.51,0,0,1,7,11"/><path class="cls-19" d="M9.77,13.9a6.54,6.54,0,0,1,.62-5.18,2.52,2.52,0,0,1,1.87,2.49A5.57,5.57,0,0,1,12,13.56c-.16.37-.38.74-.51,1.12.14.46.92.59,1,1.08a6.72,6.72,0,0,1,0,3.42,9.42,9.42,0,0,0-2.75,2.33,5.08,5.08,0,0,1,0-4.56,4.8,4.8,0,0,0,.66-1.64C9.93,14.94,9.94,14.38,9.77,13.9Z"/><path class="cls-19" d="M21.07,16.23a2.08,2.08,0,0,1,1.87-.15c.48.5.11,1.16,0,1.73-.39,1.2-1.7,2.09-3,2.86a10.69,10.69,0,0,1,.37,1.18c1-.56,2.31-1.28,3.57-.94a4.31,4.31,0,0,1,2,1.71c.32.61-.36,1.36-1.23,1.52a19.71,19.71,0,0,0-3.62.75,1.94,1.94,0,0,0,.76.5c1.66.52,3.57.57,5.14,1.24.44.2.92.46.93.89a5.07,5.07,0,0,1,0,2c-.79.39-1.23-.68-2-.32-.41.38.11.81.19,1.19a2.67,2.67,0,0,1-.57,2.39c-.08.73.4,1.42.14,2.16a9.63,9.63,0,0,1-1.75,3.6c-.53.58-.17,1.46-1.12,1.84a5.41,5.41,0,0,0-1.36-.68c-.05.23-.35.55,0,.71a5.08,5.08,0,0,1,1.86,1.75c1.23.13,2.56.52,2.9,1.5.42,1.39,1.6,2.54,1.88,4a3.65,3.65,0,0,1-.78,3.3,11.08,11.08,0,0,1-5.09,1.57,103.26,103.26,0,0,1-11.79.36,19.1,19.1,0,0,0-2.39,0,14.86,14.86,0,0,1,3,.91A13.81,13.81,0,0,1,7,54.72a8.32,8.32,0,0,1-2.23,0c0-2.19.42-4.72,2.78-6.39.27.8,0,1.73.65,2.43.66-1.07.59-2.42,1.93-3.23.65-.52,1.93-.53,2.24-1.26A7,7,0,0,0,9.47,46a5.84,5.84,0,0,0-2.65,1.09,16.46,16.46,0,0,1-.13-6.56c2.4.06,4.81.16,7.22.21,0-.82,0-1.64.07-2.47A4.21,4.21,0,0,1,15.4,39c.25-.25.49-.49.75-.73a6,6,0,0,1,1.68.84l.78-.16a6.78,6.78,0,0,1,1.25-3.89,3.18,3.18,0,0,1,.95-.72,5.23,5.23,0,0,1,0-3c.14-.6.72-1.12.72-1.73a18.87,18.87,0,0,1-3.18.09c-.74-.21-.74-.87-.7-1.39-.78.07-1.54.57-2.3.33-.3-1,.36-2,.88-3a5.64,5.64,0,0,1-1.37-.1A9.44,9.44,0,0,1,12,28.26c-1.26-.81-1.29-2.19-1.16-3.39,1-1,.52-2.34.71-3.49.32-.94,1.7-1.28,2.65-1.79C16.45,18.42,18.79,17.36,21.07,16.23Z"/><path class="cls-18" d="M29.19,47.46a3.12,3.12,0,0,1-.09,2.34C29.16,49,29.15,48.24,29.19,47.46Z"/><g class="cls-20"><path class="cls-21" d="M132.89,23.57l-4.73,2.26a2,2,0,0,1-3.26,1,1.6,1.6,0,0,1,0-2.42,2.06,2.06,0,0,1,2.25-.3l4.68-2.24a.36.36,0,0,0,.22-.34V15.73a.39.39,0,0,0-.2-.34l-5.58-3-4.22,2.76v.06a1.6,1.6,0,0,1-.27.88,1.77,1.77,0,0,1-.58.54l-.08,12.18a.38.38,0,0,0,.21.34l4.2,2.17c1.23-.41,2.74.13,2.74,1.54a1.83,1.83,0,0,1-1.91,1.71A1.85,1.85,0,0,1,124.45,33l-5.27-2.72a.35.35,0,0,1-.2-.34l.08-13.3a1.84,1.84,0,0,1-.57-.54,1.54,1.54,0,0,1-.26-.87,1.61,1.61,0,0,1,.56-1.21,2,2,0,0,1,1.35-.5l.42,0,.23.06,3.48-2.27-4.62-2.4a.36.36,0,0,0-.36,0l-5.38,3a.37.37,0,0,0-.19.33V44.79h0a5.86,5.86,0,0,0,1.45-.7h0a1.84,1.84,0,0,1,1.89-1.5c1.64,0,2.59,1.81,1.35,2.91a1.68,1.68,0,0,1-2,.4,7.31,7.31,0,0,1-2.73,1.29v6.87a.39.39,0,0,0,.23.35l5.21,2.26a.35.35,0,0,0,.33,0l1.68-.91,1.84-1,1.31-.74-4.16-2a1.94,1.94,0,1,1,.76-2.17l5.86,2.81,1.34-.72,3.68-2.05a.38.38,0,0,0,.19-.34l0-11.94a1.67,1.67,0,0,1-.84-1.41,1.92,1.92,0,0,1,3.82,0,1.66,1.66,0,0,1-.84,1.41v3.92l3.71-2.06a.37.37,0,0,0,.19-.33l.06-12.51a.4.4,0,0,0-.19-.34l-4.68-2.69A.36.36,0,0,0,132.89,23.57Zm-5.17,24.65a2,2,0,0,1-1.35.5,2,2,0,0,1-1.35-.5,1.65,1.65,0,0,1-.56-1.21,1.57,1.57,0,0,1,.27-.87,1.59,1.59,0,0,1,.58-.54V40.75a.35.35,0,0,0-.19-.33l-4.64-2.72a2.08,2.08,0,0,1-2.65-.05,1.7,1.7,0,0,1,1.35-2.92,2,2,0,0,1,1.67.89l6.4,3.75a.37.37,0,0,1,.19.33v5.9a1.64,1.64,0,0,1,.57.54,1.5,1.5,0,0,1,.28.87A1.62,1.62,0,0,1,127.72,48.22Z"/><path class="cls-22" d="M111.2,44.81h0a10.18,10.18,0,0,1-1.64-.26,12.25,12.25,0,0,1-2.32-.8,10,10,0,0,1-1-.51,8.73,8.73,0,0,1-.91-.58A11.57,11.57,0,0,1,103.48,41a12.08,12.08,0,0,1,5.69-19.94,11.84,11.84,0,0,1,2-.36V10.56a.37.37,0,0,0-.37-.38h-1.65a.38.38,0,0,0-.38.38v3.77c-.47.08-.92.19-1.37.3s-.89.27-1.33.42l-1.89-3.26a.37.37,0,0,0-.52-.14L98.3,14.76a.39.39,0,0,0-.14.52L100,18.54c-.35.31-.7.62-1,.95s-.64.67-1,1L94.8,18.63a.39.39,0,0,0-.52.14l-3.12,5.4a.38.38,0,0,0,.14.52l3.27,1.89c-.16.44-.3.89-.42,1.33s-.22.91-.31,1.37H90.08a.38.38,0,0,0-.38.38v6.23a.38.38,0,0,0,.38.38h3.77c.08.47.19.92.31,1.36h0c.12.44.26.89.41,1.33l-3.26,1.88a.39.39,0,0,0-.14.53l3.11,5.39a.39.39,0,0,0,.52.14L98.06,45c.3.36.62.7,1,1s.67.64,1,1l-1.89,3.26a.4.4,0,0,0,.14.53l1.77,1,1.87,1.08,1.76,1a.38.38,0,0,0,.52-.14l1.89-3.27c.44.16.89.3,1.34.42s.9.22,1.36.31V55a.38.38,0,0,0,.38.38h1.65a.37.37,0,0,0,.37-.38V49.48a.38.38,0,0,0-.33-.38l-.71-.09a17.34,17.34,0,0,1-2.1-.42l-.73-.21c-.44-.15-.88-.3-1.3-.48l-.67-.28a.4.4,0,0,0-.48.16l-1.55,2.69a.39.39,0,0,1-.52.14l-1.22-.7a.39.39,0,0,1-.14-.52L103,46.7a.38.38,0,0,0-.1-.5l-.57-.44a12.49,12.49,0,0,1-1.06-.89l-.55-.52a15.19,15.19,0,0,1-1.41-1.61l-.44-.57a.4.4,0,0,0-.5-.1l-2.69,1.56a.38.38,0,0,1-.52-.15l-.71-1.23a.39.39,0,0,1,.14-.52l2.69-1.55a.36.36,0,0,0,.16-.47L97.17,39a16.14,16.14,0,0,1-.69-2,17.33,17.33,0,0,1-.42-2.1L96,34.19a.39.39,0,0,0-.38-.33H92.48a.38.38,0,0,1-.38-.38V32.06a.38.38,0,0,1,.38-.38h3.11a.39.39,0,0,0,.38-.33l.09-.71a15.3,15.3,0,0,1,.42-2.1,16.7,16.7,0,0,1,.69-2l.28-.68a.38.38,0,0,0-.17-.47L94.6,23.81a.38.38,0,0,1-.14-.52l.7-1.22a.38.38,0,0,1,.52-.14l2.69,1.55a.36.36,0,0,0,.49-.1l.45-.58a16.25,16.25,0,0,1,1.41-1.61,17.85,17.85,0,0,1,1.61-1.41l.57-.43a.4.4,0,0,0,.1-.5l-1.56-2.69a.39.39,0,0,1,.14-.52l1.23-.71a.38.38,0,0,1,.52.14l1.56,2.7a.36.36,0,0,0,.47.15l.67-.27a15,15,0,0,1,2-.69h0l.27-.06a.34.34,0,0,1,.32.07.36.36,0,0,1,.15.3v1.14a.37.37,0,0,1-.28.37,14.5,14.5,0,0,0-6.29,24.43,13.6,13.6,0,0,0,1.9,1.54,9.46,9.46,0,0,0,.92.57,8.82,8.82,0,0,0,1,.51,13.76,13.76,0,0,0,2.28.88,14,14,0,0,0,2.91.52c.35,0,.7,0,1,0a14.52,14.52,0,0,0,1.48-.08v-2.4A10.64,10.64,0,0,1,111.2,44.81Z"/><path class="cls-23" d="M133.15,22.27V14.86l-6.69-3.64h0c-2.34-1.21-4.69-2.42-7-3.65l-6.77,3.84h-.36V9.09H107.7v4.35l-.24.06-.31.08-.53.16L104.43,10l-8,4.6,2.18,3.77-.19.17-.22.23L98,19l-.18.18L94.06,17l-4.6,8,3.78,2.18-.07.24-.09.3-.07.3-.06.25H88.59v9.19H93c.09.37.19.74.3,1.09l-3.78,2.19,4.6,8,3.77-2.18.17.18.22.23.22.22.19.17L96.45,51q4,2.33,8,4.61l2.18-3.78.54.16.55.13v4.36h4.61V55.07h.36L119.38,58l4.16-2.27,5.11-2.82,4.44-2.48.1-7.1,6-3.31c0-4.75,0-9.5.06-14.25C137.19,24.6,135.16,23.44,133.15,22.27ZM139,39.92l-6,3.31-.1,7.1-4.37,2.44-5.11,2.82-4.09,2.23-6.66-2.89h0l-.57.48,0,1h-4.32V52l-.35-.09-.3-.08-.3-.08-.35-.1-2.17,3.74L96.66,51l2.16-3.75L98.55,47l-.22-.22-.21-.22-.25-.27-3.75,2.17-4.45-7.71,3.75-2.17c-.13-.43-.25-.86-.35-1.3H88.74v-8.9h4.32l.09-.36.08-.3.08-.3.11-.35-3.76-2.17,4.46-7.71,3.75,2.16.25-.26.21-.22.23-.22.27-.26-2.17-3.74,7.71-4.44,2.17,3.74.35-.1.29-.08.3-.08.36-.09V9.24h4.42V9.3h0v2h0v.29h.48l6.72-3.81,6.71,3.49L133,14.94v7.53l.11,0,6,3.43Z"/></g><g class="cls-24"><path class="cls-25" d="M91.05,23.58l-4.67,2.69a.39.39,0,0,0-.2.34l.06,12.51a.36.36,0,0,0,.2.33l3.7,2.06V37.59a1.66,1.66,0,0,1-.84-1.41,1.92,1.92,0,0,1,3.82,0,1.67,1.67,0,0,1-.84,1.41l0,11.94a.38.38,0,0,0,.19.34l3.68,2.05,1.34.72,5.86-2.81a1.94,1.94,0,1,1,.76,2.17L100,54l1.31.74,1.84,1,1.68.91a.35.35,0,0,0,.33,0l5.22-2.26a.38.38,0,0,0,.22-.35V47.19a7.39,7.39,0,0,1-2.73-1.29,1.68,1.68,0,0,1-2-.4c-1.24-1.1-.29-2.91,1.35-2.91a1.84,1.84,0,0,1,1.89,1.5h0a5.86,5.86,0,0,0,1.45.7h0V12.28a.37.37,0,0,0-.19-.33l-5.37-3a.38.38,0,0,0-.37,0L100,11.3l3.49,2.27.22-.06.43,0a2,2,0,0,1,1.35.5,1.65,1.65,0,0,1,.56,1.21,1.54,1.54,0,0,1-.27.87,1.7,1.7,0,0,1-.56.54l.08,13.3a.38.38,0,0,1-.21.34L99.84,33a1.85,1.85,0,0,1-1.91,1.59A1.83,1.83,0,0,1,96,32.83c0-1.41,1.51-1.95,2.75-1.54L103,29.12a.38.38,0,0,0,.21-.34l-.08-12.18a1.74,1.74,0,0,1-.57-.54,1.53,1.53,0,0,1-.28-.88v-.06L98,12.36l-5.58,3a.38.38,0,0,0-.19.34v5.83a.37.37,0,0,0,.21.34l4.68,2.24a2.06,2.06,0,0,1,2.25.3,1.6,1.6,0,0,1,0,2.42c-1.09,1-3.09.45-3.25-1L91.4,23.57A.36.36,0,0,0,91.05,23.58ZM96,47a1.49,1.49,0,0,1,.27-.87,1.64,1.64,0,0,1,.57-.54V39.7a.37.37,0,0,1,.19-.33l6.4-3.75a2,2,0,0,1,1.67-.89c1.64,0,2.6,1.81,1.35,2.92a2.07,2.07,0,0,1-2.64.05l-4.64,2.72a.35.35,0,0,0-.19.33V45.6a1.64,1.64,0,0,1,.57.54,1.57,1.57,0,0,1,.27.87,1.61,1.61,0,0,1-.56,1.21,2.07,2.07,0,0,1-2.7,0A1.61,1.61,0,0,1,96,47Z"/><path class="cls-26" d="M113.09,44.81h0a10.18,10.18,0,0,0,1.64-.26,12.59,12.59,0,0,0,2.33-.8q.48-.23,1-.51a7.8,7.8,0,0,0,.91-.58A11.57,11.57,0,0,0,120.81,41a12.08,12.08,0,0,0-5.69-19.94,11.51,11.51,0,0,0-2-.36V10.56a.38.38,0,0,1,.38-.38h1.64a.38.38,0,0,1,.38.38v3.77c.47.08.92.19,1.37.3s.9.27,1.33.42l1.89-3.26a.37.37,0,0,1,.52-.14L126,14.76a.38.38,0,0,1,.14.52l-1.88,3.26c.35.31.7.62,1,.95s.64.67,1,1l3.26-1.89a.39.39,0,0,1,.52.14l3.12,5.4a.38.38,0,0,1-.14.52l-3.26,1.89c.15.44.29.89.41,1.33s.23.91.31,1.37h3.76a.38.38,0,0,1,.38.38v6.23a.38.38,0,0,1-.38.38h-3.77c-.08.47-.19.92-.31,1.36h0c-.12.44-.25.89-.41,1.33L133,40.85a.38.38,0,0,1,.14.53L130,46.77a.39.39,0,0,1-.52.14L126.23,45c-.3.36-.62.7-1,1s-.67.64-1,1l1.89,3.26a.4.4,0,0,1-.14.53l-1.76,1-1.88,1.08-1.76,1a.39.39,0,0,1-.52-.14l-1.89-3.27c-.44.16-.89.3-1.33.42s-.91.22-1.37.31V55a.38.38,0,0,1-.38.38h-1.64a.38.38,0,0,1-.38-.38V49.48a.38.38,0,0,1,.33-.38l.71-.09a17.34,17.34,0,0,0,2.1-.42l.74-.21c.44-.15.87-.3,1.29-.48l.67-.28a.4.4,0,0,1,.48.16L121,50.47a.39.39,0,0,0,.52.14l1.22-.7a.38.38,0,0,0,.14-.52l-1.55-2.69a.39.39,0,0,1,.1-.5l.57-.44a12.61,12.61,0,0,0,1.07-.89l.55-.52A16.41,16.41,0,0,0,125,42.74l.44-.57a.38.38,0,0,1,.49-.1l2.69,1.56a.38.38,0,0,0,.52-.15l.71-1.23a.38.38,0,0,0-.14-.52L127,40.18a.37.37,0,0,1-.16-.47l.28-.67a17.9,17.9,0,0,0,.68-2,17.33,17.33,0,0,0,.42-2.1l.1-.72a.37.37,0,0,1,.37-.33h3.11a.38.38,0,0,0,.38-.38V32.06a.38.38,0,0,0-.38-.38H128.7a.39.39,0,0,1-.38-.33l-.09-.71a15.3,15.3,0,0,0-.42-2.1,15.11,15.11,0,0,0-.68-2l-.28-.68a.37.37,0,0,1,.16-.47l2.68-1.55a.38.38,0,0,0,.15-.52l-.71-1.22a.38.38,0,0,0-.52-.14l-2.69,1.55a.36.36,0,0,1-.49-.1L125,22.8a16.66,16.66,0,0,0-3-3l-.57-.43a.4.4,0,0,1-.1-.5l1.56-2.69a.39.39,0,0,0-.14-.52l-1.23-.71a.38.38,0,0,0-.52.14l-1.55,2.7a.38.38,0,0,1-.48.15l-.67-.27a15,15,0,0,0-2-.69h0L116,16.9a.34.34,0,0,0-.32.07.38.38,0,0,0-.15.3v1.14a.38.38,0,0,0,.28.37,14.5,14.5,0,0,1,6.29,24.43,14.11,14.11,0,0,1-1.89,1.54c-.3.2-.61.4-.93.57a8.82,8.82,0,0,1-1,.51,13.76,13.76,0,0,1-2.28.88,14,14,0,0,1-2.91.52c-.35,0-.69,0-1,0a14.52,14.52,0,0,1-1.48-.08v-2.4A10.64,10.64,0,0,0,113.09,44.81Z"/><path class="cls-23" d="M85.08,25.76c0,4.75.06,9.5.06,14.25l6,3.31.1,7.1,4.44,2.48,5.12,2.82L104.91,58l6.71-2.92H112v1.42h4.62V52.13l.54-.13.55-.16,2.17,3.78q4-2.29,8-4.61l-2.18-3.77.18-.17.22-.22.22-.23.18-.18,3.76,2.18q2.31-4,4.6-8l-3.77-2.19c.1-.35.2-.72.29-1.09h4.36V28.19h-4.36l-.05-.25-.08-.3-.08-.3-.07-.24,3.77-2.18q-2.29-4-4.6-8l-3.78,2.18-.17-.18-.22-.22-.22-.23-.19-.17,2.18-3.77-8-4.6-2.17,3.78-.54-.16-.3-.08-.25-.06V9.09H112V11.4h-.36l-6.77-3.84c-2.33,1.23-4.68,2.44-7,3.65h0l-6.7,3.64v7.41C89.13,23.44,87.1,24.6,85.08,25.76Zm.14.09,6-3.43.11,0V14.94l6.85-3.72,6.71-3.49,6.72,3.81h.49v-.29h0v-2h0V9.24h4.42v4.32l.36.09.3.08.3.08.35.1,2.16-3.74,7.71,4.44-2.16,3.74.26.26.23.22.21.22.25.26,3.75-2.16,4.46,7.71L130.88,27l.1.35.08.3.08.3.09.36h4.32v8.9h-4.33c-.1.44-.22.87-.35,1.3l3.75,2.17-4.45,7.71-3.74-2.17-.25.27-.22.22-.22.22-.27.25L127.64,51l-7.72,4.45-2.16-3.74-.36.1-.29.08-.3.08-.36.09v4.32H112V54.93h-.47l-6.66,2.89-4.08-2.23-5.11-2.82-4.37-2.44-.11-7.1-5.95-3.31Z"/></g><path class="cls-27" d="M5.85,89.49a3.51,3.51,0,0,1-.45.08,4.4,4.4,0,0,1-.62,0,2.76,2.76,0,0,1-.54,0,.87.87,0,0,1-.39-.16.68.68,0,0,1-.24-.33,1.48,1.48,0,0,1-.08-.56v-7L4,81.45a4.55,4.55,0,0,1,.61,0,2.76,2.76,0,0,1,.54,0,.87.87,0,0,1,.39.17.63.63,0,0,1,.24.33,1.42,1.42,0,0,1,.08.55Z"/><path class="cls-27" d="M11.74,89.76l-.52,0c-.19,0-.39,0-.6,0l-.63-.1a2.94,2.94,0,0,1-.57-.17,1,1,0,0,1-.74-1V82.28a.58.58,0,0,1,.16-.43,1.07,1.07,0,0,1,.42-.25,5.8,5.8,0,0,1,1.2-.24c.43,0,.81-.06,1.15-.06a6.48,6.48,0,0,1,1.88.25,4.11,4.11,0,0,1,1.45.77,3.51,3.51,0,0,1,.93,1.32,4.89,4.89,0,0,1,.34,1.88,5,5,0,0,1-.32,1.85A3.76,3.76,0,0,1,15,88.69a3.88,3.88,0,0,1-1.42.8A5.8,5.8,0,0,1,11.74,89.76ZM11,87.82a2.39,2.39,0,0,0,.36.05l.39,0a2.72,2.72,0,0,0,.83-.13,1.8,1.8,0,0,0,.66-.41,1.92,1.92,0,0,0,.42-.73,3.3,3.3,0,0,0,.15-1.06,2.56,2.56,0,0,0-.55-1.79,1.92,1.92,0,0,0-1.49-.61l-.38,0-.39,0Z"/><path class="cls-27" d="M18.64,82.75a1.14,1.14,0,0,1,1.23-1.23h4.39a1.43,1.43,0,0,1,.16.39,1.64,1.64,0,0,1,.08.5,1,1,0,0,1-.22.71.78.78,0,0,1-.58.22H20.9v1.23h3a1.83,1.83,0,0,1,.24.87,1,1,0,0,1-.22.71.74.74,0,0,1-.57.22H20.9v1.39h3.41a1.52,1.52,0,0,1,.17.38,1.68,1.68,0,0,1,.07.5,1,1,0,0,1-.22.72.76.76,0,0,1-.58.22H19.87a1.14,1.14,0,0,1-1.23-1.23Z"/><path class="cls-27" d="M28.91,81.76a2.82,2.82,0,0,1,.68-.25,3.71,3.71,0,0,1,.93-.12,3.26,3.26,0,0,1,1.17.19,1,1,0,0,1,.66.6c.16.46.33,1,.52,1.61s.37,1.23.56,1.88L34,87.59c.18.63.33,1.19.47,1.68a1.12,1.12,0,0,1-.48.29,2.16,2.16,0,0,1-.76.12,2.12,2.12,0,0,1-.54-.06,1,1,0,0,1-.36-.16.84.84,0,0,1-.22-.27,2.08,2.08,0,0,1-.15-.4l-.24-.91H29.28c-.07.26-.14.53-.21.82l-.21.82-.4.11a2.24,2.24,0,0,1-.49.05,1.71,1.71,0,0,1-1-.24.74.74,0,0,1-.32-.64,1.22,1.22,0,0,1,.05-.37c0-.12.08-.27.12-.44s.15-.53.26-.88L27.43,86l.43-1.26.42-1.23.37-1Zm1.59,1.71-.41,1.24q-.24.67-.42,1.38h1.64c-.12-.48-.25-.94-.37-1.4s-.25-.86-.36-1.22Z"/><path class="cls-27" d="M44.5,83.14a1.94,1.94,0,0,0-1.57.62,2.59,2.59,0,0,0-.55,1.76A2.44,2.44,0,0,0,43,87.29a2.14,2.14,0,0,0,1.63.63,2.5,2.5,0,0,0,.92-.15,7.89,7.89,0,0,0,.72-.33,1.39,1.39,0,0,1,.36.44,1.43,1.43,0,0,1,.12.6,1.07,1.07,0,0,1-.6.92,3.48,3.48,0,0,1-1.84.38,5.42,5.42,0,0,1-1.68-.25,3.92,3.92,0,0,1-1.37-.77,3.68,3.68,0,0,1-.92-1.33A4.8,4.8,0,0,1,40,85.52a4.65,4.65,0,0,1,.33-1.82,3.75,3.75,0,0,1,.89-1.33,3.68,3.68,0,0,1,1.32-.82,4.6,4.6,0,0,1,1.62-.28,3.64,3.64,0,0,1,1.89.4,1.16,1.16,0,0,1,.68,1,1,1,0,0,1-.18.59,1.27,1.27,0,0,1-.4.4,3.89,3.89,0,0,0-.73-.38A2.35,2.35,0,0,0,44.5,83.14Z"/><path class="cls-27" d="M48.55,85.52a4.74,4.74,0,0,1,.33-1.83,3.66,3.66,0,0,1,.89-1.33,3.8,3.8,0,0,1,1.32-.81,4.74,4.74,0,0,1,1.66-.28,4.69,4.69,0,0,1,1.65.28,3.88,3.88,0,0,1,1.34.81,3.81,3.81,0,0,1,.9,1.33A4.94,4.94,0,0,1,57,85.52a4.74,4.74,0,0,1-.32,1.83,3.6,3.6,0,0,1-.88,1.34,3.65,3.65,0,0,1-1.34.81,4.76,4.76,0,0,1-1.67.28,4.86,4.86,0,0,1-1.68-.28,3.75,3.75,0,0,1-1.32-.83,3.68,3.68,0,0,1-.88-1.34A4.87,4.87,0,0,1,48.55,85.52Zm2.39,0a2.84,2.84,0,0,0,.49,1.8,1.76,1.76,0,0,0,2.65,0,3.53,3.53,0,0,0,0-3.59,1.77,1.77,0,0,0-2.64,0A2.73,2.73,0,0,0,50.94,85.52Z"/><path class="cls-27" d="M66.69,89.27a1.31,1.31,0,0,1-.54.28,3,3,0,0,1-.84.1,2.83,2.83,0,0,1-.93-.15,1.26,1.26,0,0,1-.72-.7l-1.32-2.67q-.2-.41-.36-.78c-.1-.24-.22-.52-.34-.84l-.08,0c0,.47,0,1,.06,1.45s0,1,0,1.46v2a3.88,3.88,0,0,1-.45.08,4,4,0,0,1-.59,0,2.68,2.68,0,0,1-.52,0,.83.83,0,0,1-.37-.16.85.85,0,0,1-.23-.32,1.62,1.62,0,0,1-.08-.54V81.93a1.14,1.14,0,0,1,.57-.39,2.54,2.54,0,0,1,.83-.14,2.69,2.69,0,0,1,.94.16,1.28,1.28,0,0,1,.71.69l1.33,2.67c.13.28.25.54.35.78s.23.52.35.84h.07c0-.48-.06-1-.07-1.43s0-1,0-1.43V81.52l.44-.08c.2,0,.4,0,.59,0a1.56,1.56,0,0,1,.89.21,1,1,0,0,1,.31.85Z"/><path class="cls-27" d="M69.15,83.38A1.68,1.68,0,0,1,69,83a1.89,1.89,0,0,1-.08-.53,1,1,0,0,1,.24-.74.81.81,0,0,1,.6-.23h5.8a1.71,1.71,0,0,1,.17.4,1.84,1.84,0,0,1,.08.53,1,1,0,0,1-.23.74.85.85,0,0,1-.61.23H73.47v6.11a3.74,3.74,0,0,1-.46.08,4.4,4.4,0,0,1-.62,0,2.92,2.92,0,0,1-.54,0,1,1,0,0,1-.39-.16.68.68,0,0,1-.24-.33,1.71,1.71,0,0,1-.08-.56V83.38Z"/><path class="cls-27" d="M78,82.75a1.22,1.22,0,0,1,.33-.9,1.24,1.24,0,0,1,.91-.33h4.38a1.81,1.81,0,0,1,.17.39,1.63,1.63,0,0,1,.07.5.94.94,0,0,1-.22.71.76.76,0,0,1-.58.22h-2.8v1.23h3a1.61,1.61,0,0,1,.17.37,2,2,0,0,1,.07.5,1,1,0,0,1-.21.71.78.78,0,0,1-.58.22H80.27v1.39h3.42a1.55,1.55,0,0,1,.16.38,1.68,1.68,0,0,1,.07.5,1,1,0,0,1-.21.72.78.78,0,0,1-.58.22H79.25a1.24,1.24,0,0,1-.91-.33,1.22,1.22,0,0,1-.33-.9Z"/><path class="cls-27" d="M88.75,86.35c-.39-.13-.75-.26-1.07-.4a3.33,3.33,0,0,1-.82-.5,2,2,0,0,1-.54-.69,2.27,2.27,0,0,1-.19-1A2.16,2.16,0,0,1,87,82a3.89,3.89,0,0,1,2.44-.67,5.93,5.93,0,0,1,1.06.08,3.17,3.17,0,0,1,.85.24,1.49,1.49,0,0,1,.55.43,1,1,0,0,1,.2.6,1.13,1.13,0,0,1-.16.59,1.69,1.69,0,0,1-.39.41,2.91,2.91,0,0,0-.78-.32,4.09,4.09,0,0,0-1.08-.14,1.8,1.8,0,0,0-.88.17.48.48,0,0,0-.27.41.38.38,0,0,0,.17.33,1.84,1.84,0,0,0,.52.23l.7.22a5.23,5.23,0,0,1,1.92,1,2.13,2.13,0,0,1,.67,1.67,2.2,2.2,0,0,1-.89,1.82,4.2,4.2,0,0,1-2.62.7,6.69,6.69,0,0,1-1.13-.1,3.68,3.68,0,0,1-.92-.3,1.63,1.63,0,0,1-.61-.47,1,1,0,0,1-.22-.66,1,1,0,0,1,.23-.65,1.74,1.74,0,0,1,.49-.42,3.72,3.72,0,0,0,.91.5,3,3,0,0,0,1.17.22,1.6,1.6,0,0,0,.92-.2.59.59,0,0,0,.27-.47.44.44,0,0,0-.22-.4,3,3,0,0,0-.59-.27Z"/><path class="cls-27" d="M94.34,83.38a1.71,1.71,0,0,1-.17-.4,1.89,1.89,0,0,1-.08-.53,1,1,0,0,1,.23-.74.85.85,0,0,1,.61-.23h5.79a1.71,1.71,0,0,1,.17.4,1.55,1.55,0,0,1,.08.53,1,1,0,0,1-.23.74.83.83,0,0,1-.6.23H98.66v6.11a3.74,3.74,0,0,1-.46.08,4.3,4.3,0,0,1-.62,0,2.73,2.73,0,0,1-.53,0,1,1,0,0,1-.4-.16.73.73,0,0,1-.23-.33,1.48,1.48,0,0,1-.08-.56V83.38Z"/><path class="cls-27" d="M109.31,81.3a4.25,4.25,0,0,1,1.34.19,3.1,3.1,0,0,1,1,.52,2.13,2.13,0,0,1,.63.78,2.29,2.29,0,0,1,.21,1,3.49,3.49,0,0,1-1.58,2.65l-1.74,1.39h3.19a2.34,2.34,0,0,1,.15.37,1.53,1.53,0,0,1,.07.49.94.94,0,0,1-.21.68.8.8,0,0,1-.56.2h-4.61a1.41,1.41,0,0,1-.46-.51,1.72,1.72,0,0,1,0-1.49,2.13,2.13,0,0,1,.42-.5L109,85.48c.23-.19.42-.37.57-.52s.27-.3.37-.42a1.57,1.57,0,0,0,.2-.34.89.89,0,0,0,.06-.31.65.65,0,0,0-.33-.58,1.44,1.44,0,0,0-.8-.21,2.56,2.56,0,0,0-.95.16,3.79,3.79,0,0,0-.7.35,1.15,1.15,0,0,1-.37-.39,1,1,0,0,1-.15-.56,1.08,1.08,0,0,1,.65-1A3.8,3.8,0,0,1,109.31,81.3Z"/><path class="cls-27" d="M121.73,85.52a5.6,5.6,0,0,1-.27,1.81,3.7,3.7,0,0,1-.73,1.33,3.16,3.16,0,0,1-1.13.82,3.82,3.82,0,0,1-2.87,0,3.08,3.08,0,0,1-1.13-.82,3.55,3.55,0,0,1-.73-1.33,6.43,6.43,0,0,1,0-3.62,3.67,3.67,0,0,1,.73-1.32,2.94,2.94,0,0,1,1.13-.81,3.82,3.82,0,0,1,2.87,0,3,3,0,0,1,1.13.81,3.83,3.83,0,0,1,.73,1.32A5.6,5.6,0,0,1,121.73,85.52Zm-2.27,0a3.81,3.81,0,0,0-.34-1.8,1.07,1.07,0,0,0-1-.64,1,1,0,0,0-1,.64,4,4,0,0,0-.33,1.8,4,4,0,0,0,.33,1.81,1,1,0,0,0,1,.64,1.07,1.07,0,0,0,1-.64A3.89,3.89,0,0,0,119.46,85.52Z"/><path class="cls-27" d="M126.3,81.3a4.21,4.21,0,0,1,1.34.19,3.15,3.15,0,0,1,1,.52,2.21,2.21,0,0,1,.62.78,2.15,2.15,0,0,1,.22,1,3.49,3.49,0,0,1-1.58,2.65l-1.74,1.39h3.18a1.63,1.63,0,0,1,.16.37,1.53,1.53,0,0,1,.07.49.94.94,0,0,1-.21.68.8.8,0,0,1-.56.2h-4.61a1.33,1.33,0,0,1-.46-.51,1.63,1.63,0,0,1,0-1.49,1.89,1.89,0,0,1,.41-.5L126,85.48c.23-.19.42-.37.57-.52a5.18,5.18,0,0,0,.36-.42,1.25,1.25,0,0,0,.2-.34.89.89,0,0,0,.06-.31.66.66,0,0,0-.32-.58,1.48,1.48,0,0,0-.81-.21,2.59,2.59,0,0,0-1,.16,4.14,4.14,0,0,0-.7.35,1.26,1.26,0,0,1-.37-.39,1,1,0,0,1-.14-.56,1.07,1.07,0,0,1,.65-1A3.76,3.76,0,0,1,126.3,81.3Z"/><path class="cls-27" d="M133.2,83.64l-1.33.41a1.93,1.93,0,0,1-.4-.37,1,1,0,0,1-.2-.66c0-.53.32-.9,1-1.11l1.49-.51h.49a1.14,1.14,0,0,1,1.24,1.23v6.9l-.43.07a3.9,3.9,0,0,1-.58.05,2.86,2.86,0,0,1-.53,0,1,1,0,0,1-.39-.16.8.8,0,0,1-.25-.32,1.62,1.62,0,0,1-.08-.54Z"/></svg>